<mxfile host="app.diagrams.net" modified="2023-09-26T08:14:50.197Z" agent="Mozilla/5.0 (Windows NT 10.0; Win64; x64) AppleWebKit/537.36 (KHTML, like Gecko) Chrome/116.0.0.0 Safari/537.36" version="21.8.0" etag="Vx2ySeq64P62AM_J8dZw" type="github">
  <diagram name="Page-1" id="vVuOgiu_KnAvd0fQjylh">
    <mxGraphModel>
      <root>
        <mxCell id="0" />
        <mxCell id="1" parent="0" />
      </root>
    </mxGraphModel>
  </diagram>
</mxfile>
